# xmcd CD database file
# Copyright (C) 1993-1998 Ti Kan
#
# Track frame offsets:
#	150
#	17402
#	42082
#	66362
#
# Disc length: 1185 seconds
#
# Revision: 1
# Processed by: cddbd v1.4b41PL1 Copyright (c) Steve Scherf et al.
# Submitted via: xmcd 2.2 PL1
#
DISCID=29049f04
DTITLE=Portishead/ Only You
DYEAR=1900
DGENRE=
TTITLE0=Only You [Edit]
TTITLE1=Elysium [Parlour Talk Remix]
TTITLE2=Only You [NYC]
TTITLE3=Only You
EXTD=
EXTT0=
EXTT1=
EXTT2=
EXTT3=
PLAYORDER=
